<?xml version="1.0" encoding="UTF-8" standalone="no"?>
<svg
   xmlns:dc="http://purl.org/dc/elements/1.1/"
   xmlns:cc="http://creativecommons.org/ns#"
   xmlns:rdf="http://www.w3.org/1999/02/22-rdf-syntax-ns#"
   xmlns:svg="http://www.w3.org/2000/svg"
   xmlns="http://www.w3.org/2000/svg"
   id="svg19"
   version="1.1"
   viewBox="0 0 128 128">
  <metadata
     id="metadata23">
    <rdf:RDF>
      <cc:Work
         rdf:about="">
        <dc:format>image/svg+xml</dc:format>
        <dc:type
           rdf:resource="http://purl.org/dc/dcmitype/StillImage" />
        <dc:title></dc:title>
      </cc:Work>
    </rdf:RDF>
  </metadata>
  <defs
     id="defs4">
    <style
       id="style2">.cls-1{fill:#7ad0cb;}.cls-2{fill:#c3edf5;}.cls-3{fill:#4dbab4;}.cls-4{fill:#87dbec;}.cls-5{fill:#4d91bb;}</style>
  </defs>
  <g
     id="_38_Target_Audience"
     data-name="38 Target Audience">
    <path
       id="path8"
       d="M 102.2,39.2 A 11.2,11.2 0 1 1 91,28 11.2,11.2 0 0 1 102.2,39.2 Z m 6.8,32.4 a 18,18 0 0 0 -18,-18 v 0 a 18,18 0 0 0 -18,18 V 92 h 36 z"
       class="cls-1" />
    <path
       id="path10"
       d="M 48.2,39.2 A 11.2,11.2 0 1 1 37,28 11.2,11.2 0 0 1 48.2,39.2 Z M 55,71.6 a 18,18 0 0 0 -18,-18 v 0 a 18,18 0 0 0 -18,18 V 92 h 36 z"
       class="cls-2" />
    <path
       id="path12"
       d="M 88.36,76.64 A 22.47,22.47 0 0 0 78.89,58.31 17.93,17.93 0 0 0 73,71.6 V 92 h 15.36 z"
       class="cls-3" />
    <path
       id="path14"
       d="M 39.64,76.64 A 22.47,22.47 0 0 1 49.11,58.31 17.93,17.93 0 0 1 55,71.6 V 92 H 39.64 Z"
       class="cls-4" />
    <path
       id="path16"
       d="M 78,38 A 14,14 0 1 1 64,24 14,14 0 0 1 78,38 Z m 8.5,40.5 A 22.5,22.5 0 0 0 64,56 v 0 A 22.5,22.5 0 0 0 41.5,78.5 V 104 h 45 z"
       class="cls-5" />
    <path
       id="path29"
       d="m 58.21875,74.34375 q -0.9375,0 -1.5625,-0.625 -0.625,-0.625 -0.625,-2.34375 0,-2.8125 2.34375,-5 2.34375,-2.34375 5.78125,-2.34375 3.4375,0 5.625,2.03125 2.1875,2.03125 2.1875,5.3125 0,1.71875 -0.625,3.28125 -0.625,1.40625 -2.8125,2.65625 -2.34375,1.40625 -3.4375,2.34375 -0.9375,0.78125 -0.9375,2.5 v 2.8125 h -1.25 v -3.125 q 0,-1.71875 0.46875,-2.65625 0.625,-1.09375 2.03125,-2.03125 2.34375,-1.5625 2.96875,-2.8125 0.78125,-1.25 0.78125,-3.125 0,-2.96875 -1.40625,-4.375 -1.25,-1.40625 -3.90625,-1.40625 -2.8125,0 -4.375,1.5625 -1.5625,1.40625 -1.5625,2.8125 0,0.46875 0.15625,0.78125 0.3125,0.15625 0.78125,0.46875 0.625,0.3125 0.78125,0.78125 0.3125,0.46875 0.3125,1.09375 0,0.78125 -0.46875,1.09375 -0.46875,0.3125 -1.25,0.3125 z M 65.875,89.8125 q 0,0.9375 -0.625,1.5625 Q 64.625,92 63.6875,92 62.75,92 62.125,91.375 61.5,90.75 61.5,89.8125 q 0,-0.9375 0.625,-1.5625 0.625,-0.625 1.5625,-0.625 0.9375,0 1.5625,0.625 0.625,0.625 0.625,1.5625 z" class="cls-2" />
  </g>
</svg>
